<svg xmlns="http://www.w3.org/2000/svg" viewBox="0 0 746.15 557.11"><defs><style>.cls-1{fill:#fff;}</style></defs><g id="Layer_2" data-name="Layer 2"><g id="Layer_2-2" data-name="Layer 2"><g id="Floor_01_-_Shapes" data-name="Floor 01 - Shapes"><path class="cls-1" d="M306.11,213.59l35.33-35.32c1.91-1.92,3.74-2.93,5.27-2.93,2.36,0,3.76,2.5,3.76,6.67v20.87l-27.53,27.54Z"/><path class="cls-1" d="M324.57,232.05l25.9-25.91v29.69a6.2,6.2,0,0,1-1.55,3.75L340.51,248Z"/><path class="cls-1" d="M306.24,258.19V217l32.64,32.64-7,7a6.17,6.17,0,0,1-3.74,1.55Z"/><path class="cls-1" d="M274.3,258.19c-3.46,0-5.76-.93-6.46-2.62s.27-4,2.71-6.42l33.39-33.38v42.42Z"/><path class="cls-1" d="M324.57,323l14.89-14.9,9.46,9.46a6.2,6.2,0,0,1,1.55,3.75v27.6Z"/><path class="cls-1" d="M300.52,298.92h27.6a6.17,6.17,0,0,1,3.74,1.55l6,6-14.89,14.89Z"/><path class="cls-1" d="M284.42,321.82,270.55,308c-2.44-2.45-3.4-4.73-2.71-6.42s3-2.62,6.46-2.62h23l22.9,22.9Z"/><polygon class="cls-1" points="286.72 324.12 321.79 324.12 321.79 359.19 286.72 324.12"/><path class="cls-1" d="M346.71,381.77c-1.53,0-3.36-1-5.27-2.93l-17.35-17.35V325.75l26.38,26.38v23a10,10,0,0,1-1.06,5,3,3,0,0,1-2.69,1.64Z"/><path class="cls-1" d="M413.56,258.19a6.17,6.17,0,0,1-3.74-1.55l-17.06-17.06a6.2,6.2,0,0,1-1.55-3.75V208.12l50.07,50.07Z"/><path class="cls-1" d="M444.53,258.19,427.9,241.56l17.82-17.82,25.41,25.41c2.44,2.45,3.41,4.73,2.71,6.42s-3,2.62-6.46,2.62Z"/><rect class="cls-1" x="412.12" y="205.76" width="25.19" height="29.59" transform="translate(-31.56 364.92) rotate(-45)"/><path class="cls-1" d="M391.21,204.86V182c0-4.17,1.4-6.67,3.76-6.67,1.53,0,3.36,1,5.27,2.93l21.3,21.29-17.82,17.82Z"/><path class="cls-1" d="M410.76,299.78a6.07,6.07,0,0,1,2.8-.86h53.82c3.47,0,5.76.93,6.46,2.62s-.27,4-2.71,6.42L445,334.06Z"/><path class="cls-1" d="M391.21,321.28a6.2,6.2,0,0,1,1.55-3.75L409,301.29l14.06,14.06-31.86,31.87Z"/><path class="cls-1" d="M395,381.77c-2.36,0-3.76-2.49-3.76-6.67V350.48L424.7,317l18.7,18.7-43.16,43.16c-1.91,1.92-3.74,2.93-5.27,2.93Z"/><path class="cls-1" d="M448.21,441v-55.4l7-7a5.32,5.32,0,0,1,7.49,0L500,415.93l-38.43,38.42Z"/><polygon class="cls-1" points="462.73 478.35 462.73 456.46 501.63 417.56 518.15 434.08 473.87 478.35 462.73 478.35"/><path class="cls-1" d="M425.85,478.35V407.93l20-20.05v53.94a.27.27,0,0,0,.09.2l14.43,14.44v21.89Z"/><polygon class="cls-1" points="475.5 479.98 519.77 435.71 544.66 460.6 475.5 529.76 475.5 479.98"/><path class="cls-1" d="M475.5,557.11V533l70.79-70.79,22.29,22.28a5.31,5.31,0,0,1,0,7.49L505,555.56a6.2,6.2,0,0,1-3.74,1.55Z"/><path class="cls-1" d="M396.5,557.11a5.29,5.29,0,0,1-5.29-5.29V480.66h82v76.45Z"/><path class="cls-1" d="M391.21,478.35V444.77a6.2,6.2,0,0,1,1.55-3.75l30.79-30.79v68.12Z"/><rect class="cls-1" x="283.32" y="119.86" width="40.21" height="32.68" transform="translate(-7.43 254.45) rotate(-45)"/><path class="cls-1" d="M307.72,108.8,350.47,66v44a6.2,6.2,0,0,1-1.55,3.74l-18.09,18.1Z"/><path class="cls-1" d="M307.24,32.54V0h37.94a5.29,5.29,0,0,1,5.29,5.29V32.54Z"/><polygon class="cls-1" points="307.24 34.84 350.47 34.84 350.47 62.79 307.24 106.02 307.24 34.84"/><path class="cls-1" d="M121.61,258.19a5.3,5.3,0,0,1-5.29-5.29V121.81a6.17,6.17,0,0,1,1.55-3.74l34.62-34.62,79.76,79.76-54.38,54.38a.29.29,0,0,0-.09.21v40.39Z"/><path class="cls-1" d="M154.11,81.82,234.39,1.55A6.17,6.17,0,0,1,238.13,0h66.81V108.32l-30.33,30.33a.29.29,0,0,0,0,.42l24.53,24.53-31.63,31.62Z"/><rect class="cls-1" x="207.76" y="187.44" width="25.78" height="45.27" transform="translate(-83.92 217.55) rotate(-45)"/><rect class="cls-1" x="227.56" y="167.46" width="26.15" height="45.27" transform="translate(-63.93 225.83) rotate(-45)"/><path class="cls-1" d="M180.08,258.19V218.63l13.82-13.81,32,32-19.82,19.82a6.17,6.17,0,0,1-3.74,1.55Z"/><path class="cls-1" d="M36.65,258.19V223.14H75.58V252.9a5.3,5.3,0,0,1-5.29,5.29Z"/><path class="cls-1" d="M0,169.31V149.12a5.3,5.3,0,0,1,5.29-5.3h65a5.3,5.3,0,0,1,5.29,5.3v20.19Z"/><rect class="cls-1" x="36.65" y="196.28" width="38.94" height="24.55"/><path class="cls-1" d="M5.29,258.19A5.3,5.3,0,0,1,0,252.9V171.61H34.34v86.58Z"/><rect class="cls-1" x="36.65" y="171.61" width="38.94" height="22.36"/><polygon class="cls-1" points="595.02 258.19 595.02 199.96 623.71 171.26 623.71 258.19 595.02 258.19"/><path class="cls-1" d="M442.77,163.82,493,113.58h56.46a.27.27,0,0,0,.21-.09l34.78-34.78,41.13,41.13-113.4,113.4Z"/><path class="cls-1" d="M539.33,258.19a6.17,6.17,0,0,1-3.74-1.55l-21.77-21.77,48.75-48.76v72.08Z"/><polygon class="cls-1" points="626.01 258.19 626.01 168.96 649.14 145.83 649.14 258.19 626.01 258.19"/><rect class="cls-1" x="651.45" y="180.8" width="28.78" height="77.39"/><path class="cls-1" d="M713.74,258.19V180.8h32.41v72.1a5.3,5.3,0,0,1-5.29,5.29Z"/><path class="cls-1" d="M682.53,258.19v-79.4a.3.3,0,0,0-.3-.29H651.45V143.77a3.87,3.87,0,0,0,.56,0h88.85a5.3,5.3,0,0,1,5.29,5.3V178.5H711.73a.29.29,0,0,0-.29.29v79.4Z"/><path class="cls-1" d="M414.51,135.56l113.4-113.4,54.92,54.93-34.19,34.18H492.18a.29.29,0,0,0-.21.09l-50.83,50.83Z"/><path class="cls-1" d="M391.21,32.54V5.29A5.29,5.29,0,0,1,396.5,0H501.63L469.09,32.54Z"/><polygon class="cls-1" points="391.21 88.54 391.21 65.97 480.84 65.97 458.27 88.54 391.21 88.54"/><path class="cls-1" d="M391.21,63.67V34.84h78.71a.27.27,0,0,0,.21-.09L504.71.17a6.1,6.1,0,0,1,2.59,1.38l19,19L483.14,63.67Z"/><path class="cls-1" d="M392.76,113.81a6.2,6.2,0,0,1-1.55-3.74V90.85H456l-43.09,43.08Z"/><path class="cls-1" d="M564.88,258.19V183.81l62.34-62.34,20.63,20.63a4.6,4.6,0,0,0,1,.76L592.8,198.92a.27.27,0,0,0-.09.21v59.06Z"/><path class="cls-1" d="M145.39,464.29l113.4-113.4,42.65,42.65-67.53,67.53a.29.29,0,0,0-.09.21v37.1l-27.17,27.17Z"/><path class="cls-1" d="M313.22,478.35,349.61,442a6,6,0,0,1,.86,2.81v33.58Z"/><polygon class="cls-1" points="285.05 506.53 310.92 480.66 350.47 480.66 350.47 506.53 285.05 506.53"/><path class="cls-1" d="M283.42,557.11V508.83h67.05v43a5.29,5.29,0,0,1-5.29,5.29Z"/><path class="cls-1" d="M240.41,557.11a6.17,6.17,0,0,1-3.74-1.55l-28.39-28.38L236,499.42a.32.32,0,0,0,.08-.21v-37.1l66.95-66.94,45,45-66.32,66.32h-.38a.29.29,0,0,0-.29.29v50.29Z"/><path class="cls-1" d="M182.7,298.92h21.93a6.17,6.17,0,0,1,3.74,1.55l26.19,26.19L182.7,378.51Z"/><rect class="cls-1" x="52.12" y="298.92" width="40.74" height="63.36"/><path class="cls-1" d="M92.86,413.39a4.36,4.36,0,0,0-.91-.1H5.29A5.3,5.3,0,0,1,0,408V304.22a5.3,5.3,0,0,1,5.29-5.3H49.82v65.37a.3.3,0,0,0,.29.3H92.86Z"/><path class="cls-1" d="M122.78,441.68h0l0,0L236.18,328.28l21,21-113.4,113.4Z"/><path class="cls-1" d="M96.11,415a5,5,0,0,0-.94-.72V298.92h56.65v7.93a.25.25,0,0,0,.05.15V409.34l-24.41,24.41s0,0,0,0l-6.27,6.26Z"/><polygon class="cls-1" points="154.17 298.92 180.4 298.92 180.4 380.81 154.17 407.04 154.17 298.92"/><path class="cls-1" d="M601.13,457.25a5.25,5.25,0,0,1-3.75-1.54l-22.22-22.22,47-47,26,26c-.13.11-.24.2-.34.3l-43,43A5.25,5.25,0,0,1,601.13,457.25Z"/><path class="cls-1" d="M726,411v-9.6a.3.3,0,0,0-.09-.21l-15.1-15.1V298.92h30a5.3,5.3,0,0,1,5.29,5.3v101.5a5.3,5.3,0,0,1-5.29,5.29Z"/><polygon class="cls-1" points="537.93 298.92 586.34 298.92 586.34 347.33 537.93 298.92"/><polygon class="cls-1" points="588.64 349.63 588.64 298.92 621.05 298.92 621.05 382.04 588.64 349.63"/><path class="cls-1" d="M519.9,313.88l13.41-13.41a5.77,5.77,0,0,1,1.81-1.11l34,34-14.87,14.87Z"/><rect class="cls-1" x="538.89" y="348.23" width="66.53" height="70.43" transform="translate(-103.55 516.89) rotate(-45)"/><path class="cls-1" d="M491.47,349.8a5.31,5.31,0,0,1,0-7.49l12.45-12.45,34.38,34.38-16.19,16.2Z"/><path class="cls-1" d="M518.22,340.9a.25.25,0,0,0-.06-.14l-12.57-12.57,12.68-12.68,34.38,34.38-12.72,12.72Z"/><path class="cls-1" d="M623.35,384.34V298.92h56.17V411H652a5.28,5.28,0,0,0-1.68.31Z"/><path class="cls-1" d="M681.82,411V298.92h26.72v88a.3.3,0,0,0,.08.21l15.11,15.1V411Z"/></g></g></g></svg>